<?xml version="1.0" standalone="no"?>
<!DOCTYPE svg PUBLIC "-//W3C//DTD SVG 20010904//EN"
 "http://www.w3.org/TR/2001/REC-SVG-20010904/DTD/svg10.dtd">
<svg version="1.0" xmlns="http://www.w3.org/2000/svg"
 width="343.000000pt" height="343.000000pt" viewBox="0 0 343.000000 343.000000"
 preserveAspectRatio="xMidYMid meet">
<metadata>
Created by potrace 1.11, written by Peter Selinger 2001-2013
</metadata>
<g transform="translate(0.000000,343.000000) scale(0.100000,-0.100000)"
fill="#000000" stroke="none">
<path d="M1488 3305 c-73 -20 -155 -61 -170 -84 -7 -12 -20 -21 -29 -21 -8 0
-30 -17 -47 -39 -28 -35 -30 -42 -20 -69 10 -27 9 -35 -14 -69 -36 -53 -61
-169 -59 -275 2 -106 8 -153 22 -179 7 -14 7 -30 1 -48 -7 -18 -5 -50 3 -97 7
-38 16 -95 19 -127 3 -32 8 -63 11 -68 3 -4 -7 -12 -22 -15 -40 -10 -73 -32
-115 -78 -38 -40 -38 -41 -38 -126 0 -48 -6 -102 -15 -125 -8 -22 -14 -54 -15
-72 0 -58 -16 -76 -93 -107 -102 -42 -184 -94 -229 -147 -46 -55 -73 -148 -82
-294 -4 -55 -9 -123 -12 -152 -3 -29 -6 -130 -8 -225 -3 -192 13 -322 60 -478
34 -114 65 -166 106 -179 70 -21 309 -36 583 -35 214 0 264 8 461 71 l80 26
80 -26 c96 -32 188 -47 314 -52 52 -3 138 -7 191 -11 135 -10 178 -1 223 43
61 61 80 142 80 353 1 221 -13 391 -40 473 -16 49 -15 64 6 147 6 25 10 63 7
85 -6 55 -66 190 -113 252 -24 32 -157 125 -252 175 -39 21 -56 39 -81 84 -29
54 -30 60 -23 129 10 90 1 125 -43 166 -35 33 -107 85 -127 91 -19 7 -9 97 19
179 23 64 26 82 17 115 -7 29 -6 48 4 73 10 25 12 65 8 150 -2 64 -7 123 -10
131 -5 13 -17 129 -17 170 -1 25 -21 84 -33 95 -57 54 -207 136 -276 150 -19
4 -40 11 -45 16 -15 11 -154 39 -190 38 -16 -1 -51 -7 -77 -14z"/>
</g>
</svg>
